# xmcd
#
# Track frame offsets: 
#        151
#        17726
#        35773
#        56274
#        74871
#        90224
#        111101
#        126880
#        145621
#        163170
#        183113
#
# Disc length: 2691 seconds
#
# Revision: 1
# Processed by: cddbd v1.5.2PL0 Copyright (c) Steve Scherf et al.
# Submitted via: ExactAudioCopy v0.95a5
#
DISCID=910a810b
DTITLE=刘罡　王浩 - 二人传奇
DYEAR=2004
DGENRE=Vocal
TTITLE0=乡间小路
TTITLE1=小薇
TTITLE2=花房姑娘
TTITLE3=爱
TTITLE4=彩虹妹妹
TTITLE5=情难枕
TTITLE6=梦驼铃
TTITLE7=冷冷的夏
TTITLE8=阿里山的姑娘
TTITLE9=失恋十四行
TTITLE10=黄昏
EXTD=
EXTT0=
EXTT1=
EXTT2=
EXTT3=
EXTT4=
EXTT5=
EXTT6=
EXTT7=
EXTT8=
EXTT9=
EXTT10=
PLAYORDER=
